<svg width="24" height="24" viewBox="0 0 24 24" fill="none" xmlns="http://www.w3.org/2000/svg">
<g clip-path="url(#clip0_200050_1224)">
<path fill-rule="evenodd" clip-rule="evenodd" d="M10.2443 7.61072C9.9348 7.43468 9.55499 7.43653 9.24718 7.61559C8.93937 7.79464 8.75 8.12388 8.75 8.47998V15.02C8.75 15.3761 8.93937 15.7053 9.24718 15.8844C9.55499 16.0634 9.9348 16.0653 10.2443 15.8892L15.9943 12.6192C16.3069 12.4415 16.5 12.1096 16.5 11.75C16.5 11.3904 16.3069 11.0585 15.9943 10.8807L10.2443 7.61072ZM13.4771 11.75L10.75 13.3009V10.1991L13.4771 11.75Z" fill="#616161"/>
<path fill-rule="evenodd" clip-rule="evenodd" d="M11.9999 3L11.9202 3.00011C11.8686 3.00023 11.793 3.00046 11.6964 3.00091C11.5032 3.00182 11.2257 3.00363 10.8875 3.00724C10.2115 3.01448 9.29111 3.02895 8.31538 3.05794C7.34125 3.08689 6.30398 3.13054 5.39671 3.19671C4.51741 3.26085 3.67537 3.35123 3.14172 3.49395L3.12785 3.49777C2.48776 3.67886 1.9068 4.02566 1.44364 4.50315C0.980479 4.98063 0.651527 5.57189 0.490009 6.21719C0.484598 6.23881 0.479912 6.2606 0.475958 6.28253C0.150649 8.08643 -0.00864589 9.91636 6.83708e-05 11.7493C-0.0111821 13.5961 0.148126 15.44 0.475965 17.2575C0.481823 17.29 0.489286 17.3222 0.498325 17.3539C0.676391 17.9792 1.01271 18.5479 1.47479 19.0052C1.93687 19.4626 2.5091 19.793 3.13617 19.9645L3.14172 19.966C3.67537 20.1088 4.51741 20.1992 5.39671 20.2633C6.30398 20.3295 7.34125 20.3731 8.31538 20.4021C9.29111 20.4311 10.2115 20.4455 10.8875 20.4528C11.2257 20.4564 11.5032 20.4582 11.6964 20.4591C11.793 20.4595 11.8686 20.4598 11.9202 20.4599L11.9996 20.46L12.08 20.4599C12.1316 20.4598 12.2071 20.4595 12.3038 20.4591C12.497 20.4582 12.7745 20.4564 13.1127 20.4528C13.7886 20.4455 14.7091 20.4311 15.6848 20.4021C16.6589 20.3731 17.6962 20.3295 18.6035 20.2633C19.4828 20.1992 20.3248 20.1088 20.8584 19.966L20.8723 19.9622C21.5124 19.7811 22.0934 19.4343 22.5565 18.9569C23.0197 18.4794 23.3486 17.8881 23.5102 17.2428C23.5156 17.2212 23.5203 17.1994 23.5242 17.1774C23.8471 15.3869 24.0063 13.5707 24.0001 11.7513C24.0114 9.90432 23.8521 8.06021 23.5242 6.24249L22.5401 6.42L23.5102 6.17719C23.3486 5.53189 23.0197 4.94063 22.5565 4.46315C22.0934 3.98566 21.5124 3.63886 20.8723 3.45777C20.8607 3.45448 20.849 3.45141 20.8373 3.44854C20.3116 3.32017 19.4768 3.23798 18.5972 3.1794C17.6916 3.11909 16.6558 3.07928 15.6822 3.05287C14.7072 3.02641 13.7874 3.01321 13.1117 3.00661C12.7737 3.00331 12.4964 3.00166 12.3034 3.00083C12.2068 3.00042 12.1313 3.00021 12.0798 3.0001L11.9999 3ZM12.0001 4L12.0001 5L12.0758 5.0001L12.2948 5.00081C12.4847 5.00162 12.7583 5.00325 13.0922 5.00651C13.7603 5.01304 14.668 5.02609 15.628 5.05213C16.5894 5.07822 17.596 5.11716 18.4643 5.17498C19.3427 5.23348 20.005 5.3072 20.345 5.38717C20.6396 5.47373 20.907 5.63509 21.1209 5.85566C21.3321 6.07333 21.484 6.3412 21.5625 6.63377C21.8644 8.32008 22.0109 10.0306 22.0001 11.7437L22.0001 11.7536C22.0062 13.4409 21.8597 15.1253 21.5625 16.7863C21.484 17.0788 21.3321 17.3467 21.1209 17.5643C20.9045 17.7875 20.6334 17.95 20.3347 18.0358C20.006 18.1224 19.3461 18.2038 18.458 18.2686C17.5915 18.3318 16.5863 18.3744 15.6254 18.4029C14.6661 18.4314 13.759 18.4457 13.0913 18.4529C12.7576 18.4564 12.4841 18.4582 12.2944 18.4591C12.1995 18.4596 12.1256 18.4598 12.0756 18.4599H11.9246C11.8746 18.4598 11.8007 18.4596 11.7058 18.4591C11.516 18.4582 11.2426 18.4564 10.9089 18.4529C10.2411 18.4457 9.33406 18.4314 8.37479 18.4029C7.41391 18.3744 6.40869 18.3318 5.5422 18.2686C4.65028 18.2035 3.98854 18.1217 3.66122 18.0347C3.36702 17.9537 3.09857 17.7984 2.88166 17.5837C2.67461 17.3788 2.52119 17.1264 2.43456 16.8487C2.13479 15.1681 1.98934 13.4635 2.00006 11.7563L2.00007 11.7451C1.99167 10.0448 2.13815 8.34737 2.43769 6.67375C2.51618 6.38119 2.66809 6.11333 2.87922 5.89566C3.09566 5.67253 3.36674 5.51 3.66544 5.42419C3.99421 5.3376 4.65409 5.25619 5.5422 5.19141C6.40869 5.12821 7.41391 5.08561 8.37479 5.05706C9.33406 5.02855 10.2411 5.01427 10.9089 5.00713C11.2426 5.00356 11.516 5.00178 11.7058 5.00089C11.8007 5.00044 11.8746 5.00022 11.9246 5.00011L11.9991 5L12.0001 4Z" fill="#616161"/>
</g>
<defs>
<clipPath id="clip0_200050_1224">
<rect width="24" height="24" fill="white"/>
</clipPath>
</defs>
</svg>
