<svg width="19" height="19" viewBox="0 0 19 19" fill="none" xmlns="http://www.w3.org/2000/svg">
<path d="M8.45655 2.94562C8.28089 2.56303 7.92888 2.24871 7.47274 2.06713C7.0166 1.88556 6.4909 1.8505 6.00348 1.96914C3.69288 2.53907 2.07808 4.12538 2.42479 5.96056C2.81494 7.9969 3.67753 9.95694 4.9681 11.7397C6.24678 13.5176 7.92355 15.0922 9.91463 16.3846C11.7052 17.5435 14.2176 17.2243 15.9891 15.8945C16.3618 15.6147 16.5879 15.2322 16.6218 14.8243C16.6557 14.4163 16.495 14.0133 16.172 13.6964L14.9039 12.4559C14.6499 12.2064 14.3081 12.0238 13.9227 11.9316C13.5374 11.8395 13.1264 11.8421 12.7429 11.9392L9.81726 12.6801L9.3067 12.2583C8.66367 11.7244 8.10099 11.1321 7.63015 10.4934C7.17417 9.84716 6.8185 9.15879 6.57103 8.44357L6.37393 7.88314L8.62991 6.22083C8.9284 6.00014 9.13779 5.71322 9.23128 5.39679C9.32477 5.08035 9.29812 4.74879 9.15472 4.44454L8.45655 2.94562ZM5.30531 0.152957C6.37192 -0.108114 7.52295 -0.0329751 8.52254 0.362978C9.52214 0.75893 10.2946 1.44572 10.6817 2.2826L11.3774 3.77962C11.6853 4.43721 11.7414 5.15328 11.5383 5.83644C11.3353 6.51961 10.8825 7.1389 10.2376 7.61527L9.07398 8.47206C9.22359 8.80263 9.42544 9.18068 9.68665 9.54734C9.94787 9.90829 10.2518 10.237 10.5297 10.5048L12.0257 10.1249C12.8621 9.91361 13.7586 9.90805 14.599 10.1089C15.4393 10.3097 16.185 10.7078 16.7395 11.2514L18.0076 12.492C18.7124 13.1814 19.0637 14.0592 18.9905 14.9479C18.9173 15.8366 18.4251 16.6699 17.6134 17.2794C15.253 19.0519 11.3988 19.7871 8.42331 17.8607C6.20591 16.422 4.33837 14.6691 2.91398 12.6896C1.47395 10.7013 0.511477 8.51503 0.0762001 6.24363C-0.49373 3.21729 2.22056 0.912867 5.30531 0.154857" fill="#616161"/>
</svg>
