<svg width="40" height="29" viewBox="0 0 40 29" fill="none" xmlns="http://www.w3.org/2000/svg">
<path d="M5.82353 8.5L7.13099 12.6459H11.362L7.93905 15.2082L9.24651 19.3541L5.82353 16.7918L2.40054 19.3541L3.70801 15.2082L0.285024 12.6459H4.51607L5.82353 8.5Z" fill="#717D96"/>
<path d="M18.8402 20.6591C18.0371 20.6591 17.3212 20.5114 16.6924 20.2159C16.0674 19.9205 15.5712 19.5133 15.2038 18.9943C14.8364 18.4754 14.6451 17.8807 14.6299 17.2102H17.0163C17.0428 17.661 17.2322 18.0265 17.5845 18.3068C17.9367 18.5871 18.3553 18.7273 18.8402 18.7273C19.2265 18.7273 19.5674 18.642 19.8629 18.4716C20.1621 18.2973 20.3951 18.0568 20.5617 17.75C20.7322 17.4394 20.8174 17.0833 20.8174 16.6818C20.8174 16.2727 20.7303 15.9129 20.5561 15.6023C20.3856 15.2917 20.1489 15.0492 19.8458 14.875C19.5428 14.7008 19.1962 14.6117 18.8061 14.608C18.4652 14.608 18.1337 14.678 17.8117 14.8182C17.4936 14.9583 17.2455 15.1496 17.0674 15.392L14.8799 15L15.4311 8.86364H22.5447V10.875H17.4595L17.1583 13.7898H17.2265C17.4311 13.5019 17.7398 13.2633 18.1527 13.0739C18.5655 12.8845 19.0277 12.7898 19.539 12.7898C20.2398 12.7898 20.8648 12.9545 21.414 13.2841C21.9633 13.6136 22.397 14.0663 22.7152 14.642C23.0333 15.214 23.1905 15.8731 23.1867 16.6193C23.1905 17.4034 23.0087 18.1004 22.6413 18.7102C22.2777 19.3163 21.7682 19.7936 21.1129 20.142C20.4614 20.4867 19.7038 20.6591 18.8402 20.6591ZM25.9652 20.6477C25.5902 20.6477 25.2682 20.5152 24.9992 20.25C24.7341 19.9811 24.6015 19.6591 24.6015 19.2841C24.6015 18.9129 24.7341 18.5947 24.9992 18.3295C25.2682 18.0644 25.5902 17.9318 25.9652 17.9318C26.3288 17.9318 26.647 18.0644 26.9197 18.3295C27.1924 18.5947 27.3288 18.9129 27.3288 19.2841C27.3288 19.5341 27.2644 19.7633 27.1356 19.9716C27.0106 20.1761 26.8458 20.3409 26.6413 20.4659C26.4367 20.5871 26.2114 20.6477 25.9652 20.6477ZM33.387 20.7557C32.4098 20.7519 31.5688 20.5114 30.8643 20.0341C30.1635 19.5568 29.6238 18.8655 29.245 17.9602C28.87 17.0549 28.6844 15.9659 28.6882 14.6932C28.6882 13.4242 28.8757 12.3428 29.2507 11.4489C29.6295 10.5549 30.1692 9.875 30.87 9.40909C31.5745 8.93939 32.4135 8.70455 33.387 8.70455C34.3605 8.70455 35.1976 8.93939 35.8984 9.40909C36.6029 9.87879 37.1446 10.5606 37.5234 11.4545C37.9022 12.3447 38.0897 13.4242 38.0859 14.6932C38.0859 15.9697 37.8965 17.0606 37.5177 17.9659C37.1427 18.8712 36.6048 19.5625 35.9041 20.0398C35.2033 20.517 34.3643 20.7557 33.387 20.7557ZM33.387 18.7159C34.0537 18.7159 34.5859 18.3807 34.9836 17.7102C35.3813 17.0398 35.5783 16.0341 35.5745 14.6932C35.5745 13.8106 35.4836 13.0758 35.3018 12.4886C35.1238 11.9015 34.87 11.4602 34.5404 11.1648C34.2147 10.8693 33.8302 10.7216 33.387 10.7216C32.7242 10.7216 32.1938 11.053 31.7961 11.7159C31.3984 12.3788 31.1976 13.3712 31.1938 14.6932C31.1938 15.5871 31.2829 16.3333 31.4609 16.9318C31.6427 17.5265 31.8984 17.9735 32.2279 18.2727C32.5575 18.5682 32.9438 18.7159 33.387 18.7159Z" fill="#717D96"/>
</svg>
