<svg width="17" height="16" viewBox="0 0 17 16" fill="none" xmlns="http://www.w3.org/2000/svg">
<g clip-path="url(#clip0_199124_3370)">
<path fill-rule="evenodd" clip-rule="evenodd" d="M1.16667 0C0.798477 0 0.5 0.298477 0.5 0.666667C0.5 1.03486 0.798477 1.33333 1.16667 1.33333H3.28688L3.8413 4.10338C3.84425 4.12236 3.84801 4.14106 3.85253 4.15947L4.96611 9.72321C5.05764 10.1834 5.30817 10.5973 5.67365 10.8915C6.03747 11.1844 6.49225 11.3406 6.9591 11.3333H13.4276C13.8944 11.3406 14.3492 11.1844 14.713 10.8915C15.0787 10.5972 15.3291 10.1836 15.4206 9.72321L15.4215 9.71822L16.4882 4.12488C16.5254 3.92972 16.4736 3.72812 16.347 3.57504C16.2203 3.42195 16.032 3.33333 15.8333 3.33333H5.04695L4.48704 0.535829C4.42467 0.224257 4.15108 0 3.83333 0H1.16667ZM5.31382 4.66667H15.0275L14.1123 9.4656C14.0815 9.6182 13.9982 9.75523 13.8769 9.85289C13.755 9.951 13.6025 10.0031 13.4461 10.0001L13.4333 10H6.95333L6.94056 10.0001C6.78413 10.0031 6.63162 9.951 6.50974 9.85289C6.38786 9.75478 6.30437 9.61692 6.27389 9.46346L5.31382 4.66667Z" fill="white"/>
<path d="M5.16667 14C5.16667 13.2636 5.76362 12.6667 6.5 12.6667C7.23638 12.6667 7.83333 13.2636 7.83333 14C7.83333 14.7364 7.23638 15.3333 6.5 15.3333C5.76362 15.3333 5.16667 14.7364 5.16667 14Z" fill="white"/>
<path d="M12.5 14C12.5 13.2636 13.097 12.6667 13.8333 12.6667C14.5697 12.6667 15.1667 13.2636 15.1667 14C15.1667 14.7364 14.5697 15.3333 13.8333 15.3333C13.097 15.3333 12.5 14.7364 12.5 14Z" fill="white"/>
</g>
<defs>
<clipPath id="clip0_199124_3370">
<rect width="16" height="16" fill="white" transform="translate(0.5)"/>
</clipPath>
</defs>
</svg>
