<svg width="24" height="24" viewBox="0 0 24 24" fill="none" xmlns="http://www.w3.org/2000/svg">
<rect x="0.5" y="0.5" width="23" height="23" rx="11.5" stroke="#008BFF"/>
<path d="M16.4711 8.47157C16.7314 8.21122 16.7314 7.78911 16.4711 7.52876C16.2107 7.26841 15.7886 7.26841 15.5283 7.52876L11.9997 11.0574L8.47108 7.52876C8.21073 7.26841 7.78862 7.26841 7.52827 7.52876C7.26792 7.78911 7.26792 8.21122 7.52827 8.47157L11.0569 12.0002L7.52827 15.5288C7.26792 15.7891 7.26792 16.2112 7.52827 16.4716C7.78862 16.7319 8.21073 16.7319 8.47108 16.4716L11.9997 12.943L15.5283 16.4716C15.7886 16.7319 16.2107 16.7319 16.4711 16.4716C16.7314 16.2112 16.7314 15.7891 16.4711 15.5288L12.9425 12.0002L16.4711 8.47157Z" fill="#008BFF"/>
</svg>
