<svg width="32" height="32" viewBox="0 0 32 32" fill="none" xmlns="http://www.w3.org/2000/svg">
<rect x="0.5" y="0.5" width="31" height="31" rx="9.5" stroke="#EFEFEF"/>
<path fill-rule="evenodd" clip-rule="evenodd" d="M15.009 11.5751C13.7961 10.3621 11.8295 10.3621 10.6166 11.5751C9.40363 12.788 9.40363 14.7546 10.6166 15.9675L11.1364 16.4873C11.1449 16.4958 11.1531 16.5045 11.1611 16.5134L16.0002 21.3526L20.8392 16.5136C20.8472 16.5047 20.8555 16.4959 20.8641 16.4873L21.3839 15.9675C22.5969 14.7546 22.5969 12.788 21.3839 11.5751C20.171 10.3621 18.2044 10.3621 16.9915 11.5751L16.4716 12.0949C16.2113 12.3552 15.7892 12.3552 15.5288 12.0949L15.009 11.5751ZM21.8325 17.4045C21.8245 17.4135 21.8162 17.4222 21.8076 17.4308L16.4723 22.7661C16.3473 22.8912 16.1776 22.9614 16.0008 22.9614C16.0006 22.9614 16.0009 22.9614 16.0008 22.9614C16.0006 22.9614 15.9999 22.9614 15.9997 22.9614C15.8228 22.9614 15.6532 22.8912 15.5282 22.7661L10.1929 17.4308C10.1843 17.4222 10.176 17.4135 10.1679 17.4045L9.67377 16.9103C7.94013 15.1767 7.94012 12.3659 9.67377 10.6323C11.4074 8.89862 14.2182 8.89862 15.9518 10.6323L16.0002 10.6807L16.0486 10.6323C17.7823 8.89862 20.5931 8.89862 22.3267 10.6323C24.0604 12.3659 24.0604 15.1767 22.3267 16.9103L21.8325 17.4045Z" fill="#6D6E70"/>
</svg>
