<svg width="21" height="20" viewBox="0 0 21 20" fill="none" xmlns="http://www.w3.org/2000/svg">
<g clip-path="url(#clip0_199479_2060)">
<path fill-rule="evenodd" clip-rule="evenodd" d="M1.50033 0C1.04009 0 0.666992 0.373096 0.666992 0.833333C0.666992 1.29357 1.04009 1.66667 1.50033 1.66667H4.15059L4.84362 5.12923C4.84731 5.15294 4.852 5.17633 4.85765 5.19934L6.24963 12.154C6.36405 12.7292 6.6772 13.2466 7.13406 13.6144C7.58883 13.9805 8.1573 14.1758 8.74086 14.1667H16.8265C17.41 14.1758 17.9785 13.9805 18.4333 13.6144C18.8903 13.2465 19.2034 12.7295 19.3177 12.154L19.3189 12.1478L20.6522 5.15611C20.6988 4.91215 20.6341 4.66015 20.4757 4.4688C20.3174 4.27744 20.082 4.16667 19.8337 4.16667H6.35068L5.65079 0.669786C5.57283 0.280321 5.23085 0 4.83366 0H1.50033ZM6.68427 5.83333H18.8264L17.6824 11.832C17.6439 12.0228 17.5398 12.194 17.3881 12.3161C17.2358 12.4388 17.0452 12.5039 16.8496 12.5002L16.8337 12.5H8.73366L8.71769 12.5002C8.52215 12.5039 8.33152 12.4388 8.17917 12.3161C8.02682 12.1935 7.92246 12.0212 7.88436 11.8293L6.68427 5.83333Z" fill="#B9B9B9"/>
<path d="M6.50033 17.5C6.50033 16.5795 7.24652 15.8333 8.16699 15.8333C9.08747 15.8333 9.83366 16.5795 9.83366 17.5C9.83366 18.4205 9.08747 19.1667 8.16699 19.1667C7.24652 19.1667 6.50033 18.4205 6.50033 17.5Z" fill="#B9B9B9"/>
<path d="M15.667 17.5C15.667 16.5795 16.4132 15.8333 17.3337 15.8333C18.2541 15.8333 19.0003 16.5795 19.0003 17.5C19.0003 18.4205 18.2541 19.1667 17.3337 19.1667C16.4132 19.1667 15.667 18.4205 15.667 17.5Z" fill="#B9B9B9"/>
</g>
<defs>
<clipPath id="clip0_199479_2060">
<rect width="20" height="20" fill="white" transform="translate(0.666992)"/>
</clipPath>
</defs>
</svg>
