<svg width="21" height="20" viewBox="0 0 21 20" fill="none" xmlns="http://www.w3.org/2000/svg">
<g clip-path="url(#clip0_199479_2064)">
<path fill-rule="evenodd" clip-rule="evenodd" d="M9.59418 4.46884C8.078 2.95266 5.61978 2.95266 4.10361 4.46884C2.58743 5.98502 2.58743 8.44324 4.10361 9.95942L4.75336 10.6092C4.76398 10.6198 4.77429 10.6307 4.78427 10.6418L10.8332 16.6907L16.8818 10.6421C16.8919 10.6309 16.9023 10.6199 16.913 10.6092L17.5628 9.95942C19.079 8.44323 19.079 5.98502 17.5628 4.46884C16.0466 2.95266 13.5884 2.95266 12.0722 4.46884L11.4224 5.1186C11.097 5.44403 10.5694 5.44403 10.2439 5.1186L9.59418 4.46884ZM18.1236 11.7557C18.1135 11.7668 18.1031 11.7778 18.0924 11.7885L11.4233 18.4576C11.267 18.6139 11.0549 18.7017 10.8339 18.7017C10.8336 18.7017 10.8341 18.7017 10.8339 18.7017C10.8336 18.7017 10.8327 18.7017 10.8325 18.7017C10.6114 18.7017 10.3994 18.6139 10.2431 18.4576L3.57399 11.7885C3.56325 11.7778 3.55285 11.7668 3.54282 11.7556L2.9251 11.1379C0.758043 8.97087 0.75804 5.45738 2.92509 3.29033C5.09215 1.12328 8.60564 1.12328 10.7727 3.29033L10.8332 3.35083L10.8937 3.29033C13.0607 1.12328 16.5742 1.12328 18.7413 3.29033C20.9083 5.45738 20.9083 8.97087 18.7413 11.1379L18.1236 11.7557Z" fill="#B9B9B9"/>
</g>
<defs>
<clipPath id="clip0_199479_2064">
<rect width="20" height="20" fill="white" transform="translate(0.833008)"/>
</clipPath>
</defs>
</svg>
