<svg width="21" height="20" viewBox="0 0 21 20" fill="none" xmlns="http://www.w3.org/2000/svg">
<path fill-rule="evenodd" clip-rule="evenodd" d="M10.5 1.6665C8.19881 1.6665 6.33333 3.53198 6.33333 5.83317C6.33333 8.13436 8.19881 9.99984 10.5 9.99984C12.8012 9.99984 14.6667 8.13436 14.6667 5.83317C14.6667 3.53198 12.8012 1.6665 10.5 1.6665ZM8 5.83317C8 4.45246 9.11929 3.33317 10.5 3.33317C11.8807 3.33317 13 4.45246 13 5.83317C13 7.21388 11.8807 8.33317 10.5 8.33317C9.11929 8.33317 8 7.21388 8 5.83317Z" fill="#B9B9B9"/>
<path d="M7.16667 11.6665C6.0616 11.6665 5.00179 12.1055 4.22039 12.8869C3.43899 13.6683 3 14.7281 3 15.8332V17.4998C3 17.9601 3.3731 18.3332 3.83333 18.3332C4.29357 18.3332 4.66667 17.9601 4.66667 17.4998V15.8332C4.66667 15.1701 4.93006 14.5342 5.3989 14.0654C5.86774 13.5966 6.50363 13.3332 7.16667 13.3332H13.8333C14.4964 13.3332 15.1323 13.5966 15.6011 14.0654C16.0699 14.5342 16.3333 15.1701 16.3333 15.8332V17.4998C16.3333 17.9601 16.7064 18.3332 17.1667 18.3332C17.6269 18.3332 18 17.9601 18 17.4998V15.8332C18 14.7281 17.561 13.6683 16.7796 12.8869C15.9982 12.1055 14.9384 11.6665 13.8333 11.6665H7.16667Z" fill="#B9B9B9"/>
</svg>
